<svg width="224" height="35" viewBox="0 0 224 35" fill="none" xmlns="http://www.w3.org/2000/svg">
<path d="M8.73483 31.8418C7.17503 31.8418 5.79957 31.55 4.60845 30.9665C3.41733 30.383 2.46727 29.5912 1.75827 28.5909C1.07763 27.5906 0.737305 26.4653 0.737305 25.2149C0.737305 23.7423 1.13435 22.5614 1.92843 21.6722C2.72251 20.7831 4.01289 20.1579 5.79957 19.7967C7.58625 19.4077 9.95432 19.2132 12.9038 19.2132H14.4352V18.5047C14.4352 17.2821 14.1516 16.4208 13.5844 15.9206C13.0172 15.3927 12.053 15.1287 10.6917 15.1287C9.55727 15.1287 8.35197 15.3093 7.07577 15.6705C5.82793 16.004 4.58009 16.518 3.33225 17.2126L1.58811 13.0031C2.32547 12.5308 3.21881 12.1001 4.26813 11.7111C5.34581 11.3221 6.46603 11.0303 7.62879 10.8358C8.79155 10.6136 9.8976 10.5024 10.9469 10.5024C14.18 10.5024 16.5906 11.2248 18.1787 12.6697C19.7669 14.0868 20.561 16.2957 20.561 19.2966V31.3833H14.5628V28.2991C14.1374 29.3828 13.4142 30.2441 12.3933 30.8832C11.4007 31.5223 10.1812 31.8418 8.73483 31.8418ZM10.1812 27.6323C11.3723 27.6323 12.3791 27.2294 13.2015 26.4236C14.024 25.6178 14.4352 24.5758 14.4352 23.2977V22.4641H12.9463C10.7626 22.4641 9.21696 22.6586 8.30943 23.0476C7.40191 23.4088 6.94815 24.0479 6.94815 24.9648C6.94815 25.7428 7.21757 26.3819 7.75641 26.8821C8.32361 27.3822 9.13188 27.6323 10.1812 27.6323Z" fill="#FD5F07"/>
<path d="M25.3527 31.3833V10.9192H31.6486V14.4619C32.6412 12.0723 34.7682 10.7525 38.0296 10.5024L39.9014 10.3774L40.2843 15.6705L36.6684 16.0456C33.492 16.3513 31.9039 17.9351 31.9039 20.797V31.3833H25.3527Z" fill="#FD5F07"/>
<path d="M54.3823 31.8418C48.5118 31.8418 45.5765 29.0493 45.5765 23.4644V15.6289H41.6203V10.9192H45.5765V2H52.0001V10.9192H58.1684V15.6289H52.0001V23.2143C52.0001 24.3813 52.2695 25.2566 52.8083 25.8401C53.3755 26.4236 54.2689 26.7153 55.4883 26.7153C55.857 26.7153 56.2399 26.6737 56.6369 26.5903C57.0623 26.5069 57.5161 26.3958 57.9982 26.2569L58.9341 30.8415C58.3385 31.1472 57.6295 31.3833 56.8071 31.55C55.9846 31.7445 55.1764 31.8418 54.3823 31.8418Z" fill="#FD5F07"/>
<path d="M61.329 31.3833V2H67.7525V13.7117C68.4899 12.6558 69.4399 11.8639 70.6027 11.336C71.7654 10.7803 73.0558 10.5024 74.4738 10.5024C79.3801 10.5024 81.8333 13.3643 81.8333 19.0882V31.3833H75.4097V19.3799C75.4097 17.9629 75.1403 16.9487 74.6014 16.3374C74.0626 15.6983 73.2685 15.3788 72.2192 15.3788C70.8579 15.3788 69.7661 15.7956 68.9436 16.6291C68.1495 17.4627 67.7525 18.5741 67.7525 19.9634V31.3833H61.329Z" fill="#FD5F07"/>
<path d="M93.6903 31.8418C92.1305 31.8418 90.755 31.55 89.5639 30.9665C88.3728 30.383 87.4227 29.5912 86.7137 28.5909C86.0331 27.5906 85.6928 26.4653 85.6928 25.2149C85.6928 23.7423 86.0898 22.5614 86.8839 21.6722C87.678 20.7831 88.9684 20.1579 90.755 19.7967C92.5417 19.4077 94.9098 19.2132 97.8592 19.2132H99.3907V18.5047C99.3907 17.2821 99.1071 16.4208 98.5399 15.9206C97.9727 15.3927 97.0084 15.1287 95.6471 15.1287C94.5127 15.1287 93.3074 15.3093 92.0312 15.6705C90.7834 16.004 89.5355 16.518 88.2877 17.2126L86.5436 13.0031C87.2809 12.5308 88.1743 12.1001 89.2236 11.7111C90.3013 11.3221 91.4215 11.0303 92.5843 10.8358C93.747 10.6136 94.8531 10.5024 95.9024 10.5024C99.1354 10.5024 101.546 11.2248 103.134 12.6697C104.722 14.0868 105.516 16.2957 105.516 19.2966V31.3833H99.5183V28.2991C99.0929 29.3828 98.3697 30.2441 97.3487 30.8832C96.3561 31.5223 95.1367 31.8418 93.6903 31.8418ZM95.1367 27.6323C96.3278 27.6323 97.3346 27.2294 98.157 26.4236C98.9794 25.6178 99.3907 24.5758 99.3907 23.2977V22.4641H97.9018C95.718 22.4641 94.1724 22.6586 93.2649 23.0476C92.3574 23.4088 91.9036 24.0479 91.9036 24.9648C91.9036 25.7428 92.173 26.3819 92.7119 26.8821C93.2791 27.3822 94.0873 27.6323 95.1367 27.6323Z" fill="#FD5F07"/>
<path d="M111.484 34.0869V2.08691H118.494V28.1408H133.238V34.0869H111.484Z" fill="#13316B"/>
<path d="M137.409 34.0869V2.08691H159.253V7.57911H144.103V15.0685H158.258V20.6061H144.103V28.5947H159.253V34.0869H137.409Z" fill="#13316B"/>
<path d="M160.598 34.0869L175.251 2.08691H180.904L195.557 34.0869H188.502L185.517 27.1422H170.638L167.699 34.0869H160.598ZM178.01 9.57628L172.99 21.65H183.211L178.1 9.57628H178.01Z" fill="#13316B"/>
<path d="M198.313 34.0869V2.08691H212.875C216.433 2.08691 219.176 2.99472 221.106 4.81032C223.036 6.59566 224.001 9.09212 224.001 12.2997C224.001 15.5072 223.036 18.0188 221.106 19.8344C219.176 21.65 216.433 22.5578 212.875 22.5578H205.323V34.0869H198.313ZM205.323 17.111H211.699C215.408 17.111 217.262 15.5072 217.262 12.2997C217.262 9.15263 215.408 7.57911 211.699 7.57911H205.323V17.111Z" fill="#13316B"/>
<line y1="3.74574" x2="105.29" y2="3.74574" stroke="#FD5F07" stroke-width="7.00461"/>
</svg>
