<svg width="26" height="24" viewBox="0 0 26 24" fill="none" xmlns="http://www.w3.org/2000/svg">
<path d="M9.18107 5.46763H10.441C11.0496 5.46763 11.5589 5.90141 11.6762 6.47629H13.1084C12.9806 5.11646 11.8337 4.04819 10.4412 4.04819H9.18135C7.78859 4.04819 6.6414 5.11646 6.51393 6.47629H7.94615C8.06283 5.90141 8.57212 5.46763 9.18107 5.46763Z" fill="#13316B"/>
<path d="M16.6625 12.8305V13.896C16.6625 14.1256 16.4763 14.3116 16.2469 14.3116H15.4867C15.257 14.3116 15.071 14.1254 15.071 13.896V12.8442H4.54644V13.896C4.54644 14.1256 4.36021 14.3116 4.13083 14.3116H3.37057C3.14091 14.3116 2.95496 14.1254 2.95496 13.896V12.8305C1.82878 12.7437 1.07885 12.4007 0.5 11.5V15.3407C0.5 15.3407 0.500871 16.7023 0.5 17.4987C0.5 18.8315 1.48207 19.6913 2.95496 19.706C4.4629 19.6913 7.54573 19.706 7.54573 19.706C7.54573 19.706 15.4807 19.706 16.8544 19.706C18.2282 19.706 19.3458 18.5881 19.3458 17.2146C19.3458 15.8412 19.3458 11.2246 19.3458 11.2246C18.7664 12.1251 17.789 12.7437 16.6625 12.8305Z" fill="#13316B"/>
<path d="M18.9939 6.76016H0.627678C0.281618 6.76016 0 7.04178 0 7.38784V9.33162C0 9.64702 0.0474098 9.95107 0.132293 10.2395C0.171469 10.3732 0.218879 10.5029 0.274237 10.6287C0.740098 11.6856 1.75557 12.4456 2.95698 12.5464V11.2098C2.95698 10.9802 3.14293 10.7942 3.3726 10.7942H4.13285C4.36252 10.7942 4.54846 10.9805 4.54846 11.2098V12.5603H15.0731L15.071 12.962C15.071 12.7323 15.2573 12.5464 15.4867 12.5464H16.2469C16.4766 12.5464 16.6625 12.7326 16.6625 12.962L16.6646 12.5464C17.8663 12.4456 18.8817 11.6856 19.3476 10.6287C19.4029 10.5029 19.4503 10.3732 19.4895 10.2398C19.5744 9.95135 19.6218 9.64702 19.6218 9.33134V7.38755C19.6218 7.04178 19.3402 6.76016 18.9939 6.76016Z" fill="#13316B"/>
<path d="M17.7984 8.80672H14.2475H13.9054L13.7815 9.12561L13.1243 10.8168L12.8596 11.4979H13.5903H17.7656C17.6298 11.5749 17.4756 11.6419 17.3011 11.6973C17.0318 11.7747 16.7235 11.8324 16.3739 11.8677C16.0235 11.8918 15.658 11.904 15.2771 11.904H13.9846H13.4846V12.404V13.9811V14.4811H13.9846H14.1818C14.4543 14.4811 14.7153 14.561 14.9744 14.7369L14.9838 14.7432L14.9935 14.7492C15.2817 14.9263 15.6297 15.238 16.0366 15.7127L16.0373 15.7135L19.7175 19.9888L19.8671 20.1627H20.0965H23.6891H24.7907L24.0654 19.3335L19.3447 13.9365C19.8864 13.7482 20.3943 13.5052 20.8671 13.2069L20.8671 13.207L20.873 13.2031C21.5163 12.7846 21.982 12.2107 22.2687 11.4979H23.4043H23.7464L23.8704 11.179L24.5275 9.48782L24.7922 8.80672H24.0615H22.4279C22.4047 8.72083 22.3788 8.63612 22.35 8.5526H23.4043H23.7464L23.8704 8.23371L24.5275 6.54256L24.7922 5.86145H24.0615H14.2475H13.9054L13.7815 6.18034L13.1243 7.8715L12.8596 8.5526H13.5903H16.3852C17.0145 8.57606 17.4769 8.66897 17.7984 8.80672Z" fill="#537ED2" stroke="white"/>
</svg>
