<svg width="26" height="24" viewBox="0 0 26 24" fill="none" xmlns="http://www.w3.org/2000/svg">
<path d="M11.3326 14.3385C10.7109 14.3385 10.0611 14.2483 9.46769 14.0677L8.30922 13.7067C8.47875 14.2784 8.56352 14.8801 8.56352 15.4518C8.56352 16.5952 8.33747 17.6483 7.94189 18.5509C10.3436 19.243 12.8866 19.1828 15.2883 18.4306L17.577 17.7084C18.1986 17.4978 18.6225 16.8961 18.6225 16.204L18.3449 12.4138L13.1974 14.0376C12.604 14.2483 11.9542 14.3385 11.3326 14.3385Z" fill="#13316B"/>
<path d="M11.2807 14.3385C11.9023 14.3385 12.5522 14.2483 13.1456 14.0677L14.3041 13.7067C14.1345 14.2784 14.0498 14.8801 14.0498 15.4518C14.0498 16.5952 14.2758 17.6483 14.6714 18.5509C12.2697 19.243 9.72668 19.1828 7.32496 18.4306L5.03627 17.7085C4.41465 17.4978 3.99081 16.8961 3.99081 16.204V12.3226L9.41587 14.0376C10.0092 14.2483 10.6591 14.3385 11.2807 14.3385Z" fill="#13316B"/>
<path d="M0.628756 8.13986L9.8683 5.19118C10.8007 4.89029 11.7614 4.89029 12.6938 5.19118L17.0452 6.57525C17.1582 6.99649 17.356 7.53809 17.6951 8.32039C16.7626 9.22305 15.8302 10.3664 15.1521 11.6301L12.6938 12.4124C11.7614 12.7133 10.7725 12.7133 9.8683 12.4124L1.95677 9.91508V12.1416C2.1263 12.2319 2.23932 12.4124 2.23932 12.6231V13.2248C2.23932 13.4354 2.1263 13.6461 1.92851 13.7363L2.40885 14.97C2.46536 15.1204 2.3806 15.331 2.21106 15.331L1.70247 15.3912C1.58944 15.3912 1.50468 15.3912 1.39165 15.3912L0.883055 15.331C0.713522 15.3009 0.628757 15.1204 0.685268 14.97L1.19386 13.7363C1.02433 13.6461 0.883055 13.4655 0.883055 13.2248V12.6231C0.883055 12.4124 0.996078 12.2319 1.13736 12.1416V9.67438L0.6005 9.49384C-0.0211201 9.28322 -0.0211201 8.32039 0.628756 8.13986Z" fill="#13316B"/>
<path fill-rule="evenodd" clip-rule="evenodd" d="M12.7438 5.19118L21.729 8.06389C21.729 8.52133 21.9389 8.82103 22.0869 9.03236C22.2461 9.25964 22.3337 9.3847 22.0116 9.49384L21.4747 9.67438L20.6553 9.91508L18.2587 10.6817L17.2413 11.4483H15.862L12.7438 12.4124C11.8396 12.7133 10.8506 12.7133 9.91821 12.4124L7.45999 11.6301C6.78185 10.3664 5.84942 9.22305 4.91699 8.32039C5.25606 7.53809 5.45385 6.99649 5.56687 6.57525L9.91821 5.19118C10.8506 4.89029 11.8113 4.89029 12.7438 5.19118Z" fill="#13316B"/>
<path d="M17.9616 8.10294H14.6958H14.3537L14.2298 8.42184L13.6028 10.0352L13.3381 10.7163H14.0688H17.9608C17.8531 10.7712 17.7339 10.8198 17.6024 10.8616C17.3472 10.935 17.0546 10.9897 16.7225 11.0233C16.3889 11.0463 16.0408 11.0578 15.6781 11.0578H14.445H13.945V11.5578V13.0625V13.5625H14.445H14.6331C14.8882 13.5625 15.1327 13.6371 15.3763 13.8024L15.3857 13.8088L15.3954 13.8148C15.6675 13.9819 15.9977 14.2773 16.3852 14.7293L16.3859 14.7301L19.8969 18.8089L20.0465 18.9827H20.2759H23.7033H24.8049L24.0796 18.1536L19.5984 13.0304C20.1047 12.8517 20.5801 12.6229 21.0233 12.3433L21.0233 12.3433L21.0292 12.3395C21.6428 11.9403 22.088 11.3939 22.3637 10.7163H23.4316H23.7737L23.8977 10.3974L24.5246 8.78405L24.7893 8.10294H24.0586H22.5177C22.4995 8.03673 22.4795 7.97124 22.4579 7.90649H23.4316H23.7737L23.8977 7.5876L24.5246 5.9742L24.7893 5.29309H24.0586H14.6958H14.3537L14.2298 5.61198L13.6028 7.22538L13.3381 7.90649H14.0688H16.7347C17.263 7.92621 17.666 7.99732 17.9616 8.10294Z" fill="#537ED2" stroke="white"/>
</svg>
