<svg width="26" height="24" viewBox="0 0 26 24" fill="none" xmlns="http://www.w3.org/2000/svg">
<path d="M20.092 10.94C20.4077 11.1963 20.2186 11.6907 19.805 11.6907H17.5502C17.3049 11.6907 17.3211 12.1459 17.1061 12.1166V20.5742C17.1061 20.8094 16.9072 21 16.6619 21H12V16.1063H8V21H3.58339C3.3381 21 3.13926 20.8094 3.13926 20.5742V12.1166C3.13926 11.8814 2.94042 11.6907 2.69513 11.6907H0.445025C0.0308285 11.6907 -0.157927 11.1952 0.158871 10.9393L9.86323 3.10017C10.0289 2.96635 10.2711 2.96664 10.4364 3.10086L20.092 10.94Z" fill="#13316B"/>
<path d="M17.3584 9.15942H13.2073H12.8651L12.7412 9.47832L12.0139 11.3499L11.7493 12.031H12.48H17.2865C17.0965 12.1615 16.87 12.271 16.602 12.3561C16.3 12.443 15.9551 12.5073 15.565 12.5468C15.1757 12.5736 14.7696 12.5871 14.3467 12.5871H12.9164H12.4164V13.0871V14.8325V15.3325H12.9164H13.1345C13.4476 15.3325 13.7467 15.4245 14.0416 15.6247L14.051 15.631L14.0607 15.637C14.3863 15.837 14.7756 16.1866 15.2277 16.714L15.2284 16.7148L19.3012 21.4462L19.4508 21.62H19.6801H23.6559H24.7576L24.0323 20.7908L18.7557 14.7584C19.3797 14.5477 19.9631 14.2721 20.5045 13.9305L20.5045 13.9306L20.5104 13.9268C21.2227 13.4634 21.7356 12.8257 22.0478 12.031H23.3408H23.6829L23.8068 11.7121L24.5341 9.84053L24.7988 9.15942H24.0681H22.2192C22.1849 9.02758 22.1447 8.89827 22.0986 8.77154H23.3408H23.6829L23.8068 8.45264L24.5341 6.5811L24.7988 5.89999H24.0681H13.2073H12.8651L12.7412 6.21889L12.0139 8.09043L11.7493 8.77154H12.48H15.5739C16.3115 8.79895 16.8484 8.91218 17.2148 9.08246C17.2656 9.10608 17.3135 9.1317 17.3584 9.15942Z" fill="#537ED2" stroke="white"/>
</svg>
