<svg width="24" height="24" viewBox="0 0 24 24" fill="none" xmlns="http://www.w3.org/2000/svg">
<path d="M9.50033 8.48322C10.6259 8.48322 11.7514 8.41629 12.7936 8.31589C15.2114 9.95578 17.8794 12.7001 17.8377 15.2101C17.8377 19.1593 14.0859 21 9.45865 21C4.83141 21 1.07959 19.1258 1.07959 15.2101C1.07959 12.7001 3.74755 9.95578 6.20707 8.31589C7.24924 8.41629 8.3331 8.48322 9.50033 8.48322Z" fill="#13316B"/>
<path d="M9.45958 6.61446C10.5434 6.61446 11.5856 6.54752 12.5444 6.48059C13.1697 5.40964 13.7533 4.27175 13.7533 3.80321C13.7533 3.06693 12.6278 2.69879 11.9191 3.46854C11.002 4.47256 10.6268 3 9.58464 3C8.54247 3 8.00054 4.37216 7.20849 3.46854C6.49981 2.63186 5.20752 3.13387 5.20752 3.76975C5.20752 4.40562 5.70776 5.47657 6.29138 6.44712C7.29186 6.54752 8.33403 6.61446 9.45958 6.61446Z" fill="#13316B"/>
<path d="M16.1031 8.6H12.6276H12.2737L12.1561 8.93374L11.5285 10.7137L11.2935 11.38H12H16.0479C15.8996 11.4855 15.7261 11.5747 15.5239 11.6456C15.2714 11.7255 14.9816 11.7853 14.6522 11.8221C14.3197 11.8473 13.9726 11.86 13.6109 11.86H12.3766H11.8766V12.36V14.02V14.52H12.3766H12.5649C12.8081 14.52 13.0466 14.5979 13.2904 14.7804L13.2999 14.7874L13.3096 14.794C13.5822 14.9786 13.9143 15.3058 14.3041 15.807L14.3047 15.8078L17.8193 20.3078L17.9695 20.5H18.2134H21.6444H22.6795L22.036 19.6892L17.4852 13.9552C18.0185 13.7538 18.5171 13.4923 18.98 13.1705L18.98 13.1706L18.9859 13.1663C19.6042 12.723 20.0451 12.1204 20.315 11.38H21.3724H21.7263L21.8439 11.0463L22.4715 9.26626L22.7065 8.6H22H20.4665C20.4402 8.49159 20.41 8.38491 20.3759 8.28H21.3724H21.7263L21.8439 7.94626L22.4715 6.16626L22.7065 5.5H22H12.6276H12.2737L12.1561 5.83374L11.5285 7.61374L11.2935 8.28H12H14.6677C15.2941 8.30586 15.7404 8.41168 16.0399 8.56503C16.0615 8.57613 16.0826 8.58778 16.1031 8.6Z" fill="#537ED2" stroke="white"/>
</svg>
