<svg width="46" height="46" viewBox="0 0 46 46" fill="none" xmlns="http://www.w3.org/2000/svg">
<path fill-rule="evenodd" clip-rule="evenodd" d="M38.0796 22.177C39.1647 21.1811 40.6466 20.1774 42.398 20.3191C43.0487 20.3718 43.79 20.5442 44.4088 20.9969C44.507 21.0687 44.5994 21.1443 44.6863 21.223C45.7061 22.1463 45.8068 23.3735 45.5181 24.4806C45.2337 25.5712 44.5575 26.6426 43.851 27.4779L35.241 37.6569C34.5955 38.4201 33.641 38.8708 32.6269 38.8915L18.1312 39.186C17.7358 39.194 17.3523 39.3112 17.0244 39.5221L6.44639 29.4586L10.0093 26.4469C10.6426 25.9116 11.4524 25.617 12.2905 25.617H29.0141H29.0489L29.0834 25.6203C29.6569 25.6762 30.4679 25.8554 31.216 26.2225L31.2184 26.2236C31.7039 26.6233 31.9521 27.1422 32.0163 27.6752C32.1715 28.9633 31.2985 30.1369 30.1463 30.1369H20.4878C20.1645 30.1369 19.9024 30.3958 19.9024 30.7152C19.9024 31.0346 20.1645 31.2935 20.4878 31.2935H30.1463C32.2137 31.2935 33.3894 29.2865 33.1788 27.5385C33.1499 27.2983 33.0956 27.0595 33.0145 26.8266L38.0796 22.177ZM4.52826 29.2395C4.029 29.2639 3.537 29.462 3.1557 29.8339L0.612045 32.3148C-0.21215 33.1188 -0.202726 34.425 0.633001 35.2175L11.1335 45.1746C11.9762 45.9737 13.3286 45.9381 14.1258 45.0957L16.4277 42.6635C16.8488 42.2186 17.0289 41.6383 16.9715 41.0775L4.52826 29.2395Z" fill="#10215F"/>
<path fill-rule="evenodd" clip-rule="evenodd" d="M27.4937 6.80518C26.3822 6.94128 25.1817 7.03202 23.9812 7.03202C22.7363 7.03202 21.5803 6.94128 20.4688 6.80518C17.8455 9.02826 15 12.7485 15 16.1512C15 21.4594 19.0015 24 23.9368 24C28.872 24 32.8736 21.5047 32.8736 16.1512C32.918 12.7485 30.0725 9.02826 27.4937 6.80518ZM25.1502 15.0508C25.54 14.7799 25.8057 14.394 25.9475 13.8932H26.851L27.2497 12.7972H26.0139C25.9696 12.5017 25.8766 12.2308 25.7348 11.9845H26.851L27.2497 10.8885H21.2967L20.898 11.9845H22.5989C23.0241 12.0009 23.3607 12.0707 23.6088 12.1938C23.8568 12.317 24.0207 12.5181 24.1004 12.7972H21.2967L20.898 13.8932H24.0738C24.003 14.0985 23.8922 14.2626 23.7416 14.3858C23.5999 14.5007 23.4316 14.591 23.2367 14.6567C23.0507 14.7142 22.8425 14.7552 22.6122 14.7799C22.3907 14.7963 22.1604 14.8045 21.9212 14.8045H21.1372V15.8266H21.2568C21.4871 15.8266 21.7042 15.9005 21.9079 16.0482C22.1205 16.1878 22.3553 16.4177 22.6122 16.7379L24.8445 19.5086H27.0238L23.8479 15.6296C24.3263 15.5064 24.7604 15.3135 25.1502 15.0508Z" fill="#10215F"/>
<path d="M23.9364 4.89985C25.0925 4.89985 26.204 4.80911 27.2266 4.71837C27.8935 3.26656 28.516 1.72402 28.516 1.08886C28.516 0.0907377 27.3155 -0.408321 26.5597 0.635165C25.5815 1.99623 25.1814 0 24.0698 0C22.9583 0 22.3803 1.86013 21.5355 0.635165C20.7797 -0.499059 19.4014 0.181476 19.4014 1.04349C19.4014 1.9055 19.9349 3.3573 20.5574 4.673C21.6244 4.80911 22.736 4.89985 23.9364 4.89985Z" fill="#10215F"/>
</svg>
