<svg width="124" height="103" viewBox="0 0 124 103" fill="none" xmlns="http://www.w3.org/2000/svg">
<g opacity="0.5">
<path d="M29.5244 9.08398L42.2592 30.936C31.9263 37.3096 24.9587 48.5377 24.6239 61.4027H0C0 39.2781 11.8098 19.9019 29.5244 9.08398Z" fill="#10215F"/>
<path d="M90.9916 7.11534L78.237 29.025C73.3167 26.666 67.8247 25.3409 61.9992 25.3409C56.1539 25.3409 50.6222 26.666 45.7019 29.0447L32.9473 7.15341C41.6087 2.59242 51.489 0 61.9992 0C72.4698 0 82.3513 2.57277 90.9916 7.11534Z" fill="#10215F"/>
<path d="M124 61.4029H99.3774C99.0426 48.5181 92.0552 37.2507 81.6826 30.8968L94.4174 9.06445C112.17 19.8627 124 39.2586 124 61.4029Z" fill="#10215F"/>
<path d="M59.1116 55.0339C56.4605 56.6341 55.6359 60.0505 57.2665 62.6749C58.9095 65.3177 62.3741 66.1466 65.0252 64.5452L66.7662 62.9156L87.1567 43.6143L60.6654 54.3978L59.1116 55.0339Z" fill="#10215F"/>
<path fill-rule="evenodd" clip-rule="evenodd" d="M96.8339 102.773C108.364 102.773 117.711 94.5051 117.711 84.3054C117.711 74.1058 108.364 65.8374 96.8339 65.8374C85.3039 65.8374 75.957 74.1058 75.957 84.3054C75.957 94.5051 85.3039 102.773 96.8339 102.773ZM98.6818 85.3213C99.6308 84.6764 100.278 83.7579 100.623 82.5658H102.823L103.793 79.9568H100.785C100.677 79.2533 100.45 78.6083 100.105 78.0221H102.823L103.793 75.4131H89.2997L88.3291 78.0221H92.4702C93.5055 78.0611 94.3251 78.2273 94.929 78.5204C95.5329 78.8135 95.9319 79.2924 96.126 79.9568H89.2997L88.3291 82.5658H96.0613C95.8887 83.0544 95.6191 83.4452 95.2525 83.7384C94.9074 84.012 94.4976 84.2269 94.0231 84.3833C93.5702 84.5201 93.0633 84.6178 92.5025 84.6764C91.9633 84.7155 91.4026 84.735 90.8202 84.735H88.9114V87.1681H89.2026C89.7634 87.1681 90.2918 87.344 90.7879 87.6958C91.3055 88.028 91.8771 88.5752 92.5025 89.3374L97.9377 95.9331H103.243L95.5113 86.6991C96.676 86.406 97.7328 85.9467 98.6818 85.3213Z" fill="#10215F"/>
</g>
</svg>
