<svg width="46" height="48" viewBox="0 0 46 48" fill="none" xmlns="http://www.w3.org/2000/svg">
<path fill-rule="evenodd" clip-rule="evenodd" d="M38.0796 24.4256C39.1647 23.4296 40.6466 22.4259 42.398 22.5676C43.0487 22.6203 43.79 22.7928 44.4088 23.2455C44.507 23.3172 44.5994 23.3929 44.6863 23.4715C45.7061 24.3949 45.8068 25.622 45.5181 26.7292C45.2337 27.8198 44.5575 28.8911 43.851 29.7264L35.241 39.9055C34.5955 40.6686 33.641 41.1193 32.6269 41.14L18.1312 41.4345C17.7358 41.4426 17.3523 41.5597 17.0244 41.7706L6.44639 31.7072L10.0093 28.6954C10.6426 28.1602 11.4524 27.8655 12.2905 27.8655H29.0141H29.0489L29.0834 27.8689C29.6569 27.9248 30.4679 28.1039 31.216 28.4711L31.2184 28.4722C31.7039 28.8718 31.9521 29.3907 32.0163 29.9237C32.1715 31.2118 31.2985 32.3854 30.1463 32.3854H20.4878C20.1645 32.3854 19.9024 32.6443 19.9024 32.9637C19.9024 33.2831 20.1645 33.5421 20.4878 33.5421H30.1463C32.2137 33.5421 33.3894 31.535 33.1788 29.787C33.1499 29.5468 33.0956 29.308 33.0145 29.0751L38.0796 24.4256ZM4.52826 31.4881C4.029 31.5124 3.537 31.7105 3.1557 32.0824L0.612045 34.5634C-0.21215 35.3673 -0.202726 36.6735 0.633001 37.4661L11.1335 47.4231C11.9762 48.2222 13.3286 48.1866 14.1258 47.3442L16.4277 44.912C16.8488 44.4671 17.0289 43.8868 16.9715 43.326L4.52826 31.4881Z" fill="#10215F"/>
<path d="M36.4813 10.7833C36.8973 11.1314 36.6482 11.803 36.103 11.803H33.1312C32.8079 11.803 32.5459 12.0619 32.5459 12.3813V23.8676C32.5459 24.187 32.2837 24.4459 31.9605 24.4459H26.2799V16.1928H20.4262V24.4459H14.7229C14.3996 24.4459 14.1376 24.187 14.1376 23.8676V12.3813C14.1376 12.0619 13.8755 11.803 13.5522 11.803H10.5865C10.0406 11.803 9.79185 11.1299 10.2094 10.7824L22.9998 0.136047C23.2181 -0.0456991 23.5374 -0.0453063 23.7552 0.136972L36.4813 10.7833Z" fill="#10215F"/>
</svg>
