<svg width="51" height="48" viewBox="0 0 51 48" fill="none" xmlns="http://www.w3.org/2000/svg">
<path fill-rule="evenodd" clip-rule="evenodd" d="M41.7772 22.1366C42.9676 21.0439 44.5935 19.9428 46.5149 20.0982C47.2289 20.156 48.0421 20.3452 48.721 20.8419C48.8287 20.9206 48.9301 21.0036 49.0254 21.0899C50.1443 22.1029 50.2547 23.4492 49.938 24.6639C49.626 25.8603 48.8842 27.0358 48.1091 27.9521L38.663 39.1196C37.9548 39.9568 36.9077 40.4514 35.795 40.474L19.8918 40.7971C19.458 40.806 19.0373 40.9345 18.6775 41.1659L7.07235 30.1252L10.9813 26.8211C11.676 26.2338 12.5645 25.9105 13.4839 25.9105H31.8315H31.8696L31.9075 25.9142C32.5366 25.9756 33.4264 26.1721 34.2472 26.5749L34.2498 26.5761C34.7824 27.0146 35.0547 27.5839 35.1251 28.1686C35.2955 29.5818 34.3377 30.8694 33.0736 30.8694H22.4772C22.1225 30.8694 21.835 31.1534 21.835 31.5038C21.835 31.8542 22.1225 32.1383 22.4772 32.1383H33.0736C35.3417 32.1383 36.6316 29.9364 36.4006 28.0186C36.3688 27.7551 36.3092 27.4931 36.2203 27.2376L41.7772 22.1366ZM4.96797 29.8848C4.42023 29.9116 3.88045 30.1289 3.46212 30.537L0.671476 33.2588C-0.232751 34.1408 -0.222411 35.5738 0.694467 36.4434L12.2146 47.3673C13.1391 48.244 14.6228 48.2049 15.4975 47.2807L18.0229 44.6123C18.4848 44.1242 18.6825 43.4875 18.6195 42.8723L4.96797 29.8848Z" fill="#10215F"/>
<path d="M28.5914 13.4428C27.6772 13.4428 26.7213 13.3155 25.8486 13.0611L24.1447 12.5522C24.3941 13.358 24.5188 14.2061 24.5188 15.0118C24.5188 16.6232 24.1863 18.1074 23.6045 19.3796C27.1369 20.3549 30.8771 20.2701 34.4095 19.21L37.7757 18.1922C38.69 17.8954 39.3134 17.0473 39.3134 16.0719V10.6016L31.3343 13.0187C30.4615 13.3155 29.5057 13.4428 28.5914 13.4428Z" fill="#10215F"/>
<path d="M44.2592 4.70723L30.6697 0.551444C29.2983 0.127383 27.8854 0.127383 26.514 0.551444L20.114 2.50212C19.9478 3.09581 19.6569 3.85911 19.1582 4.96167C20.5296 6.23385 21.901 7.84528 22.8984 9.62633L26.514 10.7289C27.8854 11.153 29.3399 11.153 30.6697 10.7289L42.306 7.20919V10.3472C42.0566 10.4745 41.8904 10.7289 41.8904 11.0257V11.8739C41.8904 12.1707 42.0566 12.4675 42.3475 12.5948L41.641 14.3334C41.5579 14.5454 41.6826 14.8423 41.9319 14.8423L42.68 14.9271C42.8462 14.9271 42.9709 14.9271 43.1371 14.9271L43.8852 14.8423C44.1345 14.7999 44.2592 14.5454 44.1761 14.3334L43.428 12.5948C43.6774 12.4675 43.8852 12.2131 43.8852 11.8739V11.0257C43.8852 10.7289 43.7189 10.4745 43.5111 10.3472V6.86994L44.3007 6.6155C45.215 6.31866 45.215 4.96167 44.2592 4.70723Z" fill="#10215F"/>
<path fill-rule="evenodd" clip-rule="evenodd" d="M17.1631 6.36084C16.1242 6.48806 15.0021 6.57287 13.88 6.57287C12.7164 6.57287 11.6359 6.48806 10.597 6.36084C8.14506 8.43874 5.48535 11.916 5.48535 15.0965C5.48535 20.058 9.22556 22.4327 13.8385 22.4327C18.4514 22.4327 22.1916 20.1004 22.1916 15.0965C22.2332 11.916 19.5735 8.43874 17.1631 6.36084ZM14.9727 14.0677C15.337 13.8145 15.5854 13.4538 15.7179 12.9857H16.5625L16.9351 11.9613H15.78C15.7386 11.6851 15.6516 11.4319 15.5192 11.2017H16.5625L16.9351 10.1772H11.3708L10.9982 11.2017H12.588C12.9854 11.217 13.3001 11.2822 13.5319 11.3973C13.7638 11.5124 13.917 11.7004 13.9915 11.9613H11.3708L10.9982 12.9857H13.9666C13.9004 13.1776 13.7969 13.331 13.6561 13.4461C13.5237 13.5536 13.3663 13.638 13.1842 13.6994C13.0103 13.7531 12.8157 13.7915 12.6004 13.8145C12.3934 13.8298 12.1781 13.8375 11.9546 13.8375H11.2218V14.7928H11.3336C11.5488 14.7928 11.7517 14.8619 11.9422 15C12.1409 15.1305 12.3603 15.3453 12.6004 15.6446L14.687 18.2344H16.7239L13.7555 14.6087C14.2026 14.4936 14.6084 14.3132 14.9727 14.0677Z" fill="#10215F"/>
<path d="M13.8385 4.57985C14.919 4.57985 15.958 4.49504 16.9138 4.41022C17.5372 3.05323 18.119 1.61143 18.119 1.01774C18.119 0.0848119 16.9969 -0.381654 16.2904 0.593684C15.3762 1.86586 15.0021 0 13.9632 0C12.9242 0 12.384 1.73865 11.5944 0.593684C10.8879 -0.466466 9.59961 0.169624 9.59961 0.975338C9.59961 1.78105 10.0983 3.13805 10.6801 4.36782C11.6775 4.49504 12.7165 4.57985 13.8385 4.57985Z" fill="#10215F"/>
</svg>
