<svg width="81" height="93" viewBox="0 0 81 93" fill="none" xmlns="http://www.w3.org/2000/svg">
<g opacity="0.5">
<path d="M26.7012 43.917H19.1914V53.4016H26.7012V43.917Z" fill="#10215F"/>
<path d="M36.5062 55.876H29.2051V65.3605H36.5062V55.876Z" fill="#10215F"/>
<path d="M36.5062 32.165H29.2051V41.4434H36.5062V32.165Z" fill="#10215F"/>
<path d="M26.7012 55.876H19.1914V65.3605H26.7012V55.876Z" fill="#10215F"/>
<path d="M29.2051 67.8354V77.1138H36.5062V73.8035C35.6718 72.8757 34.993 71.8654 34.993 70.5689C34.993 69.5 35.5375 68.6602 36.1612 67.8354H29.2051Z" fill="#10215F"/>
<path d="M36.5062 43.917H29.2051V53.4016H36.5062V43.917Z" fill="#10215F"/>
<path d="M49.0221 49.3449C49.7976 49.367 50.5693 49.4609 51.327 49.6256C52.1823 49.7889 53.0201 49.9575 53.58 49.8099C54.0952 49.6736 54.7216 49.1088 55.3558 48.5614C55.4843 48.4505 55.6973 48.3379 55.6973 48.2253V2.36234C55.7073 2.05432 55.6543 1.74748 55.5415 1.46021C55.4286 1.17293 55.2582 0.911149 55.0405 0.69055C54.8228 0.469951 54.5622 0.295083 54.2745 0.176432C53.9867 0.0577813 53.6777 -0.00220762 53.3659 6.208e-05H2.4995C1.15484 6.208e-05 0 1.04006 0 2.36234V85.0842C0 86.4069 1.15484 87.423 2.4995 87.423H44.7641C44.5096 86.8044 44.2401 86.0054 43.8827 85.6524C43.4874 85.2607 42.6472 84.9984 41.8347 84.723C40.5171 84.2764 39.0239 83.7599 38.265 82.4632C37.7493 81.5821 37.7299 80.6188 37.8536 79.5879H8.1527C7.99034 79.5941 7.82837 79.5682 7.67625 79.5118C7.52413 79.4554 7.38493 79.3695 7.26679 79.2593C7.14865 79.149 7.05394 79.0166 6.9882 78.8697C6.92247 78.7229 6.88703 78.5645 6.88396 78.404V30.8533C6.8875 30.6939 6.92343 30.5367 6.98962 30.3913C7.0558 30.2458 7.15089 30.1149 7.26924 30.0065C7.38759 29.8981 7.52678 29.8143 7.67855 29.76C7.83031 29.7058 7.99155 29.6823 8.1527 29.6909H47.7129C48.404 29.6909 49.0221 30.17 49.0221 30.8533V49.3449ZM48.1877 22.6805H7.71838C7.38643 22.6805 7.06807 22.5502 6.83335 22.3182C6.59862 22.0862 6.46675 21.7715 6.46675 21.4434V10.9279C6.46675 10.5998 6.59862 10.2852 6.83335 10.0532C7.06807 9.82115 7.38643 9.69081 7.71838 9.69081H48.1877C48.5197 9.69081 48.838 9.82115 49.0728 10.0532C49.3075 10.2852 49.4394 10.5998 49.4394 10.9279V21.4434C49.4394 21.7715 49.3075 22.0862 49.0728 22.3182C48.838 22.5502 48.5197 22.6805 48.1877 22.6805Z" fill="#10215F"/>
<path d="M46.9368 12.165H8.9707V20.2063H46.9368V12.165Z" fill="#10215F"/>
<path d="M44.8745 53.3453C45.2414 52.2881 45.6851 51.1104 46.5195 50.3055V43.917H39.0098V53.4016H44.828C44.8475 53.3865 44.8634 53.3672 44.8745 53.3453Z" fill="#10215F"/>
<path d="M39.0098 57.6325C39.8442 56.9857 40.8613 56.6397 41.803 56.3205C42.2325 56.2086 42.6513 56.0599 43.0546 55.876H39.0098V57.6325Z" fill="#10215F"/>
<path d="M46.5195 32.165H39.0098V41.4434H46.5195V32.165Z" fill="#10215F"/>
<path d="M26.7012 67.8354H19.1914V77.1138H26.7012V67.8354Z" fill="#10215F"/>
<path d="M16.6879 32.165H9.38672V41.4434H16.6879V32.165Z" fill="#10215F"/>
<path fill-rule="evenodd" clip-rule="evenodd" d="M79.3316 72.8101C79.9991 72.0542 80.6888 71.2723 80.6888 70.6694C80.6888 70.0665 79.9989 69.2847 79.3316 68.5288L79.3311 68.5282L79.3311 68.5282C78.5903 67.6888 77.8241 66.8207 77.5365 65.7568C77.2387 64.6557 77.4636 63.501 77.6811 62.3841L77.6811 62.3841L77.6826 62.3768L77.6827 62.3764V62.3763C77.8704 61.4167 78.0645 60.4244 77.7846 59.9463C77.4946 59.4515 76.5158 59.1189 75.5696 58.7981L75.5687 58.7977C74.4869 58.431 73.3684 58.0518 72.5636 57.2562C71.7586 56.4603 71.3746 55.3545 71.0037 54.2851C70.6793 53.3496 70.3434 52.3824 69.8419 52.0956C69.3586 51.8193 68.354 52.011 67.3829 52.1966C66.2506 52.4131 65.0801 52.6368 63.9633 52.342C62.8864 52.0574 62.0082 51.3001 61.1588 50.5675C60.3938 49.9077 59.603 49.2261 58.9928 49.2261C58.383 49.2261 57.5932 49.9071 56.8287 50.5663L56.8273 50.5675L56.8267 50.5681C55.9774 51.3003 55.0992 52.0575 54.0226 52.342C52.9064 52.6368 51.7355 52.4131 50.6034 52.1966L50.6023 52.1964C49.6314 52.0109 48.6279 51.8192 48.1441 52.0956C47.6435 52.3822 47.307 53.3496 46.9824 54.2851C46.6113 55.3545 46.2275 56.4603 45.4227 57.256C44.6179 58.0517 43.4985 58.4312 42.4165 58.7978C41.47 59.1187 40.4914 59.4504 40.2013 59.9461C39.9215 60.4244 40.1155 61.4168 40.3035 62.3768L40.3038 62.3783C40.5225 63.4968 40.7487 64.6536 40.4495 65.7566C40.1619 66.821 39.3954 67.6892 38.6543 68.5288C37.9867 69.2847 37.2969 70.0665 37.2969 70.6694C37.2969 71.2723 37.9869 72.054 38.6543 72.8098C39.3954 73.6494 40.1616 74.5177 40.4495 75.582C40.747 76.6826 40.5225 77.8364 40.3052 78.9528L40.3035 78.9618L40.3031 78.9639C40.1155 79.923 39.9215 80.9145 40.2011 81.3923C40.4912 81.8872 41.4698 82.2198 42.4163 82.5406C43.4985 82.9074 44.6172 83.2868 45.4225 84.0824C46.2277 84.8781 46.6115 85.9841 46.9822 87.0536L46.9831 87.0563C47.3076 87.9909 47.6429 88.9566 48.1441 89.2431C48.6277 89.5197 49.6311 89.328 50.602 89.1425L50.6021 89.1425L50.6032 89.1423C51.3424 88.9765 52.096 88.8804 52.8536 88.8552C53.2476 88.8517 53.6403 88.8994 54.0218 88.9969C55.0959 89.2805 55.9725 90.035 56.8202 90.7647L56.8265 90.7701C57.5914 91.4299 58.3822 92.1118 58.992 92.1118C59.6017 92.1118 60.393 91.4297 61.1577 90.7701L61.159 90.769L61.159 90.7689C62.0081 90.0369 62.886 89.28 63.9624 88.9969C65.0764 88.7025 66.2443 88.9248 67.3742 89.1398L67.3819 89.1412L67.3826 89.1414H67.3827C68.3537 89.3269 69.3575 89.5187 69.8409 89.2421C70.3416 88.9555 70.678 87.988 71.0028 87.0526C71.3737 85.9833 71.7576 84.8773 72.5626 84.0816C73.3676 83.2859 74.4865 82.9064 75.5686 82.5398L75.5688 82.5397C76.5152 82.2189 77.4938 81.8871 77.7837 81.3915C78.0637 80.9134 77.8695 79.9208 77.6815 78.9612L77.6814 78.9604L77.6814 78.9603C77.4624 77.8412 77.236 76.6844 77.5355 75.581C77.8234 74.5177 78.5898 73.6496 79.3316 72.8101ZM53.9853 73.6882C53.775 74.4487 53.3806 75.0347 52.8022 75.4461C52.2238 75.8451 51.5796 76.1381 50.8697 76.3251L55.5825 82.2161H52.3486L49.0359 78.0082C48.6546 77.522 48.3063 77.1729 47.9908 76.9609C47.6884 76.7365 47.3663 76.6243 47.0245 76.6243H46.8471V75.0721H48.0105C48.3654 75.0721 48.7072 75.0596 49.0359 75.0347C49.3777 74.9973 49.6866 74.9349 49.9626 74.8477C50.2519 74.7479 50.5016 74.6108 50.712 74.4362C50.9354 74.2492 51.0998 73.9998 51.2049 73.6882H46.4921L47.0837 72.0237H51.2444C51.1261 71.5998 50.8829 71.2943 50.5148 71.1073C50.1467 70.9203 49.6471 70.8143 49.0161 70.7894H46.4921L47.0837 69.1249H55.9178L55.3262 70.7894H53.6698C53.8801 71.1634 54.0182 71.5749 54.0839 72.0237H55.9178L55.3262 73.6882H53.9853ZM59.3402 72.6758L61.118 73.7205L68.614 60.7445L66.8546 59.6998L59.3402 72.6758ZM55.7508 66.2288C56.3373 66.9375 57.1621 67.2918 58.2251 67.2918C59.2758 67.2918 60.0945 66.9375 60.681 66.2288C61.2797 65.5079 61.579 64.5426 61.579 63.333C61.579 62.1356 61.2797 61.1826 60.681 60.4739C60.0945 59.753 59.2758 59.3926 58.2251 59.3926C57.1743 59.3926 56.3495 59.7469 55.7508 60.4556C55.1643 61.1643 54.8711 62.1234 54.8711 63.333C54.8711 64.5426 55.1643 65.5079 55.7508 66.2288ZM59.0498 65.0192C58.8543 65.3613 58.5794 65.5323 58.2251 65.5323C57.8585 65.5323 57.5775 65.3674 57.382 65.0375C57.1865 64.6954 57.0887 64.1272 57.0887 63.333C57.0887 62.551 57.1865 61.9951 57.382 61.6652C57.5775 61.3353 57.8585 61.1704 58.2251 61.1704C58.5794 61.1704 58.8543 61.3414 59.0498 61.6835C59.2575 62.0134 59.3614 62.5633 59.3614 63.333C59.3614 64.1028 59.2575 64.6648 59.0498 65.0192ZM66.8469 73.5598C67.4334 74.2685 68.2581 74.6228 69.3211 74.6228C70.3841 74.6228 71.2089 74.2685 71.7954 73.5598C72.3819 72.8389 72.6751 71.8676 72.6751 70.6457C72.6751 69.4483 72.3757 68.4953 71.777 67.7866C71.1906 67.0779 70.3719 66.7236 69.3211 66.7236C68.2703 66.7236 67.4456 67.0779 66.8469 67.7866C66.2604 68.4831 65.9672 69.4361 65.9672 70.6457C65.9672 71.8676 66.2604 72.8389 66.8469 73.5598ZM70.1642 72.3319C69.9687 72.674 69.6877 72.8451 69.3211 72.8451C68.9546 72.8451 68.6735 72.6801 68.478 72.3502C68.2826 72.0081 68.1848 71.4399 68.1848 70.6457C68.1848 69.8638 68.2826 69.3078 68.478 68.9779C68.6735 68.648 68.9546 68.4831 69.3211 68.4831C69.6755 68.4831 69.9504 68.6541 70.1459 68.9962C70.3536 69.3384 70.4574 69.8882 70.4574 70.6457C70.4574 71.4277 70.3597 71.9898 70.1642 72.3319Z" fill="#10215F"/>
<path d="M26.7012 32.165H19.1914V41.4434H26.7012V32.165Z" fill="#10215F"/>
<path d="M16.6879 43.917H9.38672V53.4016H16.6879V43.917Z" fill="#10215F"/>
<path d="M16.6879 67.8354H9.38672V77.1138H16.6879V67.8354Z" fill="#10215F"/>
<path d="M16.6879 55.876H9.38672V65.3605H16.6879V55.876Z" fill="#10215F"/>
</g>
</svg>
