<svg width="49" height="48" viewBox="0 0 49 48" fill="none" xmlns="http://www.w3.org/2000/svg">
<path fill-rule="evenodd" clip-rule="evenodd" d="M40.8437 22.7142C42.0075 21.646 43.597 20.5695 45.4755 20.7214C46.1735 20.7779 46.9686 20.9629 47.6323 21.4485C47.7376 21.5255 47.8367 21.6066 47.9299 21.691C49.0238 22.6813 49.1317 23.9975 48.8221 25.1851C48.5171 26.3548 47.7918 27.504 47.0341 28.3998L37.799 39.3178C37.1067 40.1363 36.0829 40.6198 34.9952 40.6419L19.4473 40.9578C19.0232 40.9664 18.6119 41.0921 18.2601 41.3183L6.91431 30.5244L10.7359 27.294C11.4151 26.7199 12.2837 26.4039 13.1826 26.4039H31.1202H31.1575L31.1945 26.4075C31.8096 26.4674 32.6795 26.6596 33.4819 27.0534L33.4844 27.0545C34.0052 27.4832 34.2714 28.0398 34.3403 28.6115C34.5068 29.9931 33.5704 31.2519 32.3346 31.2519H21.9749C21.6282 31.2519 21.3471 31.5296 21.3471 31.8722C21.3471 32.2148 21.6282 32.4925 21.9749 32.4925H32.3346C34.552 32.4925 35.8131 30.3397 35.5872 28.4648C35.5562 28.2072 35.4979 27.9511 35.4109 27.7013L40.8437 22.7142ZM4.85695 30.2894C4.32146 30.3155 3.79374 30.528 3.38476 30.9269L0.656471 33.5879C-0.22755 34.4502 -0.217441 35.8512 0.678949 36.7013L11.9417 47.3811C12.8455 48.2382 14.2961 48.2 15.1512 47.2965L17.6201 44.6878C18.0718 44.2106 18.265 43.5881 18.2034 42.9866L4.85695 30.2894Z" fill="#10215F"/>
<path d="M27.2868 2.0827H25.4382C24.5447 2.0827 23.7975 2.71918 23.6263 3.56267H21.5248C21.5493 3.30101 21.5996 3.0467 21.673 2.80232C21.7089 2.70317 21.7411 2.60929 21.7691 2.5217C22.3371 1.04836 23.7674 0 25.4386 0H27.2872C29.3304 0 31.0132 1.56744 31.2007 3.56267H29.0992C28.9272 2.71918 28.1799 2.0827 27.2868 2.0827Z" fill="#10215F"/>
<path d="M20.1202 6.34232H20.1196C21.7252 7.80132 23.9113 10.5842 24.9487 12.4896H34.0834V10.5081C34.0834 10.1711 34.3567 9.89825 34.6932 9.89825H35.8087C36.1457 9.89825 36.4185 10.1715 36.4185 10.5081V12.4691C38.1818 12.3213 39.6717 11.2062 40.3553 9.65541C40.4365 9.47088 40.506 9.28052 40.5635 9.08475C40.6881 8.66154 40.7576 8.21501 40.7576 7.75182V4.89976C40.7576 4.39241 40.3444 3.97921 39.8362 3.97921H21.1955C20.9297 4.59054 20.6267 5.24522 20.3605 5.82046C20.2757 6.00381 20.2041 6.15882 20.1196 6.34232C19.668 6.608 20.1202 6.34232 20.1202 6.34232Z" fill="#10215F"/>
<path d="M36.418 14.4494V12.8861C38.0709 12.7587 39.505 11.851 40.3552 10.5298V19.3188C40.3552 21.334 38.7153 22.9743 36.6996 22.9743H23.0412V22.9237C24.9474 21.6782 26.1585 19.6286 26.1585 16.7138C26.1749 15.4571 25.7888 14.1561 25.1659 12.9061H34.0829V14.4494C34.0829 14.786 34.3558 15.0592 34.6927 15.0592H35.8082C36.1448 15.0592 36.418 14.7864 36.418 14.4494Z" fill="#10215F"/>
<path fill-rule="evenodd" clip-rule="evenodd" d="M19.1285 7.79834C18.0946 7.92494 16.9781 8.00933 15.8615 8.00933C14.7035 8.00933 13.6283 7.92494 12.5944 7.79834C10.1545 9.86608 7.50781 13.3264 7.50781 16.4913C7.50781 21.4285 11.2297 23.7917 15.8201 23.7917C20.4105 23.7917 24.1324 21.4707 24.1324 16.4913C24.1738 13.3264 21.5271 9.86608 19.1285 7.79834ZM16.9482 15.4679C17.3108 15.2159 17.558 14.857 17.6898 14.3912H18.5303L18.901 13.3718H17.7516C17.7104 13.0969 17.6239 12.8449 17.4921 12.6158H18.5303L18.901 11.5964H13.364L12.9932 12.6158H14.5752C14.9707 12.6311 15.2838 12.696 15.5146 12.8106C15.7453 12.9251 15.8977 13.1122 15.9719 13.3718H13.364L12.9932 14.3912H15.9471C15.8812 14.5821 15.7782 14.7348 15.6381 14.8494C15.5063 14.9563 15.3498 15.0403 15.1685 15.1014C14.9955 15.1548 14.8018 15.193 14.5876 15.2159C14.3816 15.2312 14.1674 15.2388 13.9449 15.2388H13.2157V16.1895H13.3269C13.5412 16.1895 13.743 16.2582 13.9325 16.3956C14.1303 16.5255 14.3486 16.7393 14.5876 17.0371L16.664 19.6142H18.6909L15.737 16.0062C16.182 15.8917 16.5857 15.7122 16.9482 15.4679Z" fill="#10215F"/>
<path d="M15.8197 6.0267C16.895 6.0267 17.9288 5.9423 18.88 5.85791C19.5003 4.50755 20.0793 3.07279 20.0793 2.48201C20.0793 1.55364 18.9627 1.08945 18.2597 2.06002C17.3499 3.32598 16.9777 1.46924 15.9438 1.46924C14.9099 1.46924 14.3723 3.19939 13.5866 2.06002C12.8836 1.00505 11.6016 1.63803 11.6016 2.43981C11.6016 3.24158 12.0978 4.59194 12.6768 5.81571C13.6693 5.9423 14.7032 6.0267 15.8197 6.0267Z" fill="#10215F"/>
</svg>
