<svg width="111" height="16" viewBox="0 0 111 16" fill="none" xmlns="http://www.w3.org/2000/svg">
<path d="M3.94096 16C3.17234 16 2.49455 15.8532 1.90759 15.5597C1.32064 15.2663 0.852478 14.868 0.503102 14.3649C0.167701 13.8618 0 13.2958 0 12.6669C0 11.9262 0.195651 11.3323 0.586952 10.8851C0.978253 10.4379 1.61412 10.1234 2.49455 9.94177C3.37497 9.74612 4.54189 9.64829 5.99529 9.64829H6.74995V9.29193C6.74995 8.67702 6.6102 8.2438 6.3307 7.99225C6.05119 7.72672 5.57604 7.59396 4.90524 7.59396C4.34624 7.59396 3.7523 7.6848 3.12342 7.86647C2.50852 8.03417 1.89362 8.29271 1.27872 8.64209L0.419251 6.52487C0.782602 6.28729 1.22282 6.07068 1.73989 5.87503C2.27094 5.67938 2.82296 5.53264 3.39594 5.43481C3.96891 5.32301 4.51394 5.26711 5.03102 5.26711C6.62417 5.26711 7.81205 5.63047 8.59465 6.35717C9.37726 7.06989 9.76856 8.18091 9.76856 9.69022V15.7694H6.81283V14.2181C6.60321 14.7632 6.24685 15.1964 5.74374 15.5178C5.25462 15.8392 4.65369 16 3.94096 16ZM4.65369 13.8827C5.24064 13.8827 5.73676 13.6801 6.14203 13.2748C6.54731 12.8695 6.74995 12.3455 6.74995 11.7026V11.2834H6.01626C4.94018 11.2834 4.17854 11.3812 3.73134 11.5768C3.28414 11.7585 3.06053 12.0799 3.06053 12.5411C3.06053 12.9324 3.1933 13.2539 3.45882 13.5054C3.73832 13.757 4.13661 13.8827 4.65369 13.8827Z" fill="#FD5F07"/>
<path d="M12.1298 15.7694V5.47674H15.2323V7.25856C15.7214 6.0567 16.7695 5.39289 18.3766 5.26711L19.299 5.20423L19.4877 7.86647L17.7058 8.05514C16.1406 8.20886 15.358 9.00544 15.358 10.4449V15.7694H12.1298Z" fill="#FD5F07"/>
<path d="M26.4348 16C23.5419 16 22.0955 14.5955 22.0955 11.7865V7.84551H20.146V5.47674H22.0955V0.509277H25.2609V5.47674H28.3004V7.84551H25.2609V11.6607C25.2609 12.2477 25.3936 12.6879 25.6592 12.9813C25.9387 13.2748 26.3789 13.4216 26.9798 13.4216C27.1615 13.4216 27.3501 13.4006 27.5458 13.3587C27.7554 13.3167 27.979 13.2608 28.2166 13.191L28.6778 15.4968C28.3843 15.6506 28.0349 15.7694 27.6296 15.8532C27.2244 15.951 26.8261 16 26.4348 16Z" fill="#FD5F07"/>
<path d="M29.8579 15.7694V0.990749H33.0232V6.88123C33.3866 6.35018 33.8548 5.95189 34.4277 5.68637C35.0007 5.40686 35.6366 5.26711 36.3353 5.26711C38.753 5.26711 39.9619 6.70654 39.9619 9.5854V15.7694H36.7965V9.73214C36.7965 9.01941 36.6637 8.50933 36.3982 8.20187C36.1327 7.88045 35.7414 7.71974 35.2243 7.71974C34.5535 7.71974 34.0155 7.92936 33.6102 8.34861C33.2189 8.76786 33.0232 9.32687 33.0232 10.0256V15.7694H29.8579Z" fill="#FD5F07"/>
<path d="M45.8047 16C45.0361 16 44.3583 15.8532 43.7713 15.5597C43.1844 15.2663 42.7162 14.868 42.3668 14.3649C42.0314 13.8618 41.8637 13.2958 41.8637 12.6669C41.8637 11.9262 42.0594 11.3323 42.4507 10.8851C42.842 10.4379 43.4778 10.1234 44.3583 9.94177C45.2387 9.74612 46.4056 9.64829 47.859 9.64829H48.6137V9.29193C48.6137 8.67702 48.4739 8.2438 48.1944 7.99225C47.9149 7.72672 47.4398 7.59396 46.769 7.59396C46.21 7.59396 45.616 7.6848 44.9871 7.86647C44.3722 8.03417 43.7573 8.29271 43.1424 8.64209L42.283 6.52487C42.6463 6.28729 43.0865 6.07068 43.6036 5.87503C44.1347 5.67938 44.6867 5.53264 45.2597 5.43481C45.8326 5.32301 46.3777 5.26711 46.8947 5.26711C48.4879 5.26711 49.6758 5.63047 50.4584 6.35717C51.241 7.06989 51.6323 8.18091 51.6323 9.69022V15.7694H48.6766V14.2181C48.4669 14.7632 48.1106 15.1964 47.6075 15.5178C47.1183 15.8392 46.5174 16 45.8047 16ZM46.5174 13.8827C47.1044 13.8827 47.6005 13.6801 48.0058 13.2748C48.411 12.8695 48.6137 12.3455 48.6137 11.7026V11.2834H47.88C46.8039 11.2834 46.0423 11.3812 45.5951 11.5768C45.1479 11.7585 44.9243 12.0799 44.9243 12.5411C44.9243 12.9324 45.057 13.2539 45.3225 13.5054C45.602 13.757 46.0003 13.8827 46.5174 13.8827Z" fill="#FD5F07"/>
<path d="M54.936 15.7687V0H58.3903V12.8386H65.6554V15.7687H54.936Z" fill="white"/>
<path d="M67.7111 15.7687V0H78.475V2.7064H71.0094V6.39696H77.9848V9.12573H71.0094V13.0623H78.475V15.7687H67.7111Z" fill="white"/>
<path d="M79.138 15.7687L86.3586 0H89.1443L96.3648 15.7687H92.8883L91.4174 12.3466H84.0854L82.6369 15.7687H79.138ZM87.718 3.69055L85.2443 9.64017H90.2808L87.7626 3.69055H87.718Z" fill="white"/>
<path d="M97.7227 15.7687V0H104.899C106.652 0 108.004 0.44734 108.955 1.34202C109.905 2.22179 110.381 3.45197 110.381 5.03257C110.381 6.61317 109.905 7.85081 108.955 8.74549C108.004 9.64017 106.652 10.0875 104.899 10.0875H101.177V15.7687H97.7227ZM101.177 7.40347H104.319C106.147 7.40347 107.06 6.61317 107.06 5.03257C107.06 3.48179 106.147 2.7064 104.319 2.7064H101.177V7.40347Z" fill="white"/>
<rect width="51.9284" height="2.48759" fill="#FD5F07"/>
</svg>
